<?xml version="1.0" encoding="utf-8"?>
<!-- Generator: Adobe Illustrator 16.0.0, SVG Export Plug-In . SVG Version: 6.00 Build 0)  -->
<!DOCTYPE svg PUBLIC "-//W3C//DTD SVG 1.1//EN" "http://www.w3.org/Graphics/SVG/1.1/DTD/svg11.dtd">
<svg version="1.1" id="Layer_2" xmlns="http://www.w3.org/2000/svg" xmlns:xlink="http://www.w3.org/1999/xlink" x="0px" y="0px"
	 width="500px" height="500px" viewBox="0 0 500 500" enable-background="new 0 0 500 500" xml:space="preserve">
<path fill="#FFFFFF" d="M118.56,88.616l7.219-34.351c0,0,2.529-18.155,14.442-20.291c11.914-2.138,175.53-31.479,175.53-31.479
	s13.502-2.421,20.862,12.467c7.361,14.889,15.65,30.464,15.65,30.464l38.124-6.837c0,0,24.697,10.926,4.097,24.858
	c-20.6,13.931-20.6,13.931-20.6,13.931l21.791,13.153c0,0,9.966,5.891,12.151,19.147c2.185,13.258,14.087,90.459,14.087,90.459
	s2.707,11.457-7.619,13.309c-10.325,1.852-36.536,6.552-36.536,6.552s-10.326,1.853-11.417-4.776
	c-1.093-6.629-3.278-19.885-3.278-19.885l-206.506,37.031l2.868,17.401c0,0,3.09,8.829-4.059,10.109
	c-7.147,1.283-41.301,7.409-41.301,7.409s-8.873,0.736-10.511-9.206c-1.639-9.943-16.384-99.43-16.384-99.43
	s8.799-16.081,17.349-28.704c8.55-12.624,5.558-5.973-3.738-7.79c-9.293-1.816-28.765-0.884-22.896-19.851
	c3.016-6.513,3.016-6.513,3.016-6.513L118.56,88.616z M344.446,72.42c0,0-10.63-19.846-19.853-36.108
	c-9.221-16.26-21.724-12.738-21.724-12.738s-132.64,23.787-144.554,25.923c-11.915,2.137-14.104,14.898-14.104,14.898l-6.67,45.128
	L344.446,72.42z M146.364,153.266c-19.199-2.254-36.512-4.798-34.659,10.37c2.346,19.2,6.619,20.31,15.341,18.662
	c8.724-1.65,38.111-6.92,38.111-6.92s12.981-0.622,11.07-12.223c-1.912-11.599-5.257-8.089-14.482-8.491
	C156.7,154.442,151.465,153.863,146.364,153.266 M332.881,146.152c0,0,38.918-6.979,48.45-8.688
	c9.531-1.709,8.39-12.97,6.095-21.941c-2.296-8.973-16.217-8.469-16.217-8.469l-41.282,18.685
	C317.863,139.374,332.881,146.152,332.881,146.152z"/>
<g><path fill="none" stroke="#FFFFFF" stroke-width="30" stroke-miterlimit="10" d="M140.366,285.243
c7.68,52.1-74.787,64.257-67.106,116.356c7.68,52.099,90.147,39.941,97.828,92.04"/></g>
<g><path fill="none" stroke="#FFFFFF" stroke-width="30" stroke-miterlimit="10" d="M403.091,239.845
c7.681,52.098-74.786,64.256-67.105,116.355s90.147,39.94,97.828,92.039"/></g>
</svg>
