<?xml version="1.0" encoding="utf-8"?>
<!-- Generator: Adobe Illustrator 16.0.0, SVG Export Plug-In . SVG Version: 6.00 Build 0)  -->
<!DOCTYPE svg PUBLIC "-//W3C//DTD SVG 1.1//EN" "http://www.w3.org/Graphics/SVG/1.1/DTD/svg11.dtd">
<svg version="1.1" id="Layer_2" xmlns="http://www.w3.org/2000/svg" xmlns:xlink="http://www.w3.org/1999/xlink" x="0px" y="0px"
	 width="500px" height="500px" viewBox="0 0 500 500" enable-background="new 0 0 500 500" xml:space="preserve">
<g>
	<path fill="none" stroke="#000000" stroke-width="20" stroke-miterlimit="10" d="M13,368c0,27.614,22.386,50,50,50h376
		c27.614,0,50-22.386,50-50V136c0-27.614-22.386-50-50-50H63c-27.614,0-50,22.386-50,50V368z"/>
</g>
<path fill="none" stroke="#000000" stroke-width="20" stroke-miterlimit="10" d="M249,310.999c-0.514,0-1.027-0.196-1.417-0.589
	L36.915,100.744c-0.779-0.783-0.776-2.049,0.006-2.829c0.783-0.779,2.049-0.776,2.829,0.006l209.265,208.257L462.93,93.907
	c0.788-0.774,2.054-0.764,2.828,0.023c0.774,0.787,0.765,2.054-0.023,2.828L250.402,310.425
	C250.013,310.808,249.506,310.999,249,310.999z"/>
<line fill="none" stroke="#000000" stroke-width="20" stroke-miterlimit="10" x1="43.999" y1="414.332" x2="197.619" y2="257.384"/>
<line fill="none" stroke="#000000" stroke-width="20" stroke-miterlimit="10" x1="301.473" y1="260.332" x2="453.979" y2="411.02"/>
<g>
</g>
<g>
</g>
<g>
</g>
<g>
</g>
<g>
</g>
<g>
</g>
<g>
</g>
<g>
</g>
<g>
</g>
<g>
</g>
<g>
</g>
<g>
</g>
<g>
</g>
<g>
</g>
<g>
</g>
</svg>
