<?xml version="1.0" encoding="utf-8"?>
<!-- Generator: Adobe Illustrator 16.0.0, SVG Export Plug-In . SVG Version: 6.00 Build 0)  -->
<!DOCTYPE svg PUBLIC "-//W3C//DTD SVG 1.1//EN" "http://www.w3.org/Graphics/SVG/1.1/DTD/svg11.dtd">
<svg version="1.1" xmlns="http://www.w3.org/2000/svg" xmlns:xlink="http://www.w3.org/1999/xlink" x="0px" y="0px" width="500px"
	 height="500px" viewBox="0 0 500 500" enable-background="new 0 0 500 500" xml:space="preserve">
<g id="Layer_2">
	<path fill="#FFFFFF" d="M127.143,114.693c68.401-47.917,102.11,16.63,102.11,16.63c42.191-8.496,64.827,37.537,64.827,37.537
		c41.31,35.586,5.66,63.14,5.66,63.14l-69.396,255.724C86.906,494.671,3.736,426.231,3.736,426.231l69.397-255.728
		C64.766,103.53,127.143,114.693,127.143,114.693z M281.376,209.662c27.004-1.518-4.151-33.688-4.151-33.688
		c-9.996-36.652-58.541-29.253-58.541-29.253c-41.34-59.968-83.442-10.989-83.442-10.989c-41.842-9.138-39.624,23.523-39.624,23.523
		L281.376,209.662z M22.217,421.128c113.304,51.558,184.32,48.37,184.32,48.37l64.1-236.208L88.209,183.785L22.217,421.128z
		 M94.267,223.03L42.646,413.255c0,0,64.956,37.748,156.566,42.487l51.622-190.227l-124.637-33.823l-27.483,87.65
		c0,0-20.41,16.576-14.819-4.023c7.267-26.781,22.346-89.042,22.346-89.042L94.267,223.03z"/>
	
		<rect x="239.747" y="30.031" transform="matrix(0.0704 -0.9975 0.9975 0.0704 214.1671 314.3569)" fill="#FFFFFF" width="72" height="24.478"/>
	
		<rect x="305.95" y="45.233" transform="matrix(0.5338 -0.8456 0.8456 0.5338 112.1234 315.2478)" fill="#FFFFFF" width="72" height="21.42"/>
	
		<rect x="178.936" y="44.825" transform="matrix(-0.49 -0.8717 0.8717 -0.49 272.0201 269.8275)" fill="#FFFFFF" width="72.001" height="21.042"/>
</g>
<g id="Layer_4">
	<path fill="#FFFFFF" d="M298.761,142c-30.237-9.435-3.85-22.182-3.85-22.182l76.185-20.828c24.248,7.755,0.762,23.027,0.762,23.027
		l47.75,170.617c9.829-0.477,11.985,3.361,11.985,3.361l16.827-35.582c-8.904-16.373,10.568-13.953,10.568-13.953
		s17.51,7.385,34.521,16.995c17.011,9.612-11.753,17.721-11.753,17.721l-17.858,35.862c40.849,56.325-0.496,107.459-0.496,107.459
		s15.266,11.317,28.007,25.538c12.737,14.22-4.579,15.636-4.579,15.636s-49.415,13.51-91.625,25.051
		c-42.21,11.537-31.769-2.381-31.769-2.381l9.113-39.004c-99.729-61.251-26.831-137.609-26.831-137.609L298.761,142z
		 M419.979,439.69c72.065-19.701,49.369-86.522,49.369-86.522l-135.893,37.15C333.456,390.318,347.915,459.392,419.979,439.69z
		 M427.872,409.871c-5.403,1.479-8.586,7.056-7.109,12.455c1.478,5.401,7.055,8.583,12.456,7.107
		c5.4-1.479,8.582-7.055,7.106-12.457C438.849,411.578,433.271,408.395,427.872,409.871z M400.175,427.954
		c-2.275,0.622-3.615,2.971-2.994,5.245c0.623,2.273,2.972,3.613,5.244,2.992c2.274-0.622,3.615-2.969,2.995-5.243
		C404.796,428.675,402.448,427.333,400.175,427.954z M405.878,389.33c-2.674,0.73-4.244,3.488-3.515,6.157
		c0.729,2.673,3.486,4.247,6.159,3.516c2.672-0.729,4.242-3.487,3.513-6.161C411.306,390.173,408.548,388.599,405.878,389.33z
		 M421.622,372.854c-1.989,0.545-3.162,2.599-2.618,4.588c0.547,1.992,2.599,3.164,4.59,2.619c1.988-0.545,3.163-2.597,2.619-4.589
		C425.668,373.48,423.612,372.31,421.622,372.854z M434.043,392.026c-3.703,1.012-5.884,4.836-4.872,8.538
		c1.012,3.703,4.834,5.881,8.538,4.869c3.702-1.01,5.885-4.832,4.871-8.537C441.568,393.195,437.747,391.016,434.043,392.026z
		 M448.017,402.615c-1.991,0.546-3.162,2.6-2.618,4.589c0.544,1.993,2.597,3.164,4.589,2.619c1.989-0.543,3.162-2.601,2.617-4.59
		C452.061,403.244,450.007,402.072,448.017,402.615z"/>
	<g>
	</g>
	<g>
	</g>
	<g>
	</g>
	<g>
	</g>
	<g>
	</g>
	<g>
	</g>
	<g>
	</g>
	<g>
	</g>
	<g>
	</g>
	<g>
	</g>
	<g>
	</g>
	<g>
	</g>
	<g>
	</g>
	<g>
	</g>
	<g>
	</g>
</g>
</svg>
