<?xml version="1.0" encoding="utf-8"?>
<!-- Generator: Adobe Illustrator 16.0.0, SVG Export Plug-In . SVG Version: 6.00 Build 0)  -->
<!DOCTYPE svg PUBLIC "-//W3C//DTD SVG 1.1//EN" "http://www.w3.org/Graphics/SVG/1.1/DTD/svg11.dtd">
<svg version="1.1" xmlns="http://www.w3.org/2000/svg" xmlns:xlink="http://www.w3.org/1999/xlink" x="0px" y="0px" width="500px"
	 height="500px" viewBox="0 0 500 500" enable-background="new 0 0 500 500" xml:space="preserve">
<g id="Layer_2">
	<path fill="#FFFFFF" d="M214.069,334.676l-24-0.044c0,0-3.482-10.007-6.465-19.513c-2.983-9.505-11.483-9.521-11.483-9.521
		s-102.999-0.187-110.499-0.2s-10.894,10.355-10.894,10.355l-7.91,19.359l-23.75,0.207c0,0,0,0-2.506,3.496
		c-5.52,10.49,6.479,12.012,11.975,14.063s8.002-1.527,1.491,4.962c-6.511,6.486-13.527,14.975-13.527,14.975
		s-0.098,53.999-0.109,59.999s5.488,6.511,5.488,6.511s21.5,0.039,26,0.047c4.5,0.009,3.51-5.493,3.51-5.493l0.019-10.5
		l129.999,0.236c0,0-0.014,8-0.021,12c-0.007,4,6.493,4.012,6.493,4.012s16.5,0.03,23,0.042s6.013-6.989,6.013-6.989
		s0.584-46.498,0.599-54.499c0.015-8-5.477-12.51-5.477-12.51l-11.981-10.021c0,0,0,0,14.011-5.975S214.069,334.676,214.069,334.676
		z M62.466,390.9c0,0-18.5-0.034-24,0.006c-5.5,0.039-7.998-1.064-7.477-12.564c0.412-9.084,10.735-5.755,22.241-2.395
		c3.057,0.894,6.198,1.788,9.259,2.453c5.598,1.215,8-0.485,7.988,6.514C70.465,391.914,62.466,390.9,62.466,390.9z M99,373
		l5.358-23.524l-52.066-0.095l8.672-25.734c0,0,2.638-7.245,10.138-7.231c7.5,0.015,91,0.165,91,0.165s8.001-0.734,11.982,9.772
		c3.981,10.508,8.458,23.266,8.458,23.266l-50.541-0.093L138,373H99z M204.425,379.438c0.489,5.501,0.041,12.22-5.959,12.209
		c-6.001-0.011-30.5-0.056-30.5-0.056s-8.49-5.567,0.272-12.275l27.137-6.563C195.375,372.753,203.935,373.938,204.425,379.438z"/>
	<path fill="#FFFFFF" d="M487.069,334.676l-24-0.044c0,0-3.482-10.007-6.465-19.513c-2.983-9.505-11.483-9.521-11.483-9.521
		s-102.999-0.187-110.499-0.2s-10.894,10.355-10.894,10.355l-7.91,19.359l-23.751,0.207c0,0,0,0-2.507,3.496
		c-5.52,10.49,6.479,12.012,11.975,14.063s8.003-1.527,1.491,4.962c-6.511,6.486-13.527,14.975-13.527,14.975
		s-0.099,53.999-0.108,59.999c-0.012,6,5.487,6.511,5.487,6.511s21.501,0.039,26,0.047c4.5,0.009,3.511-5.493,3.511-5.493
		l0.019-10.5l129.999,0.236c0,0-0.014,8-0.021,12c-0.007,4,6.493,4.012,6.493,4.012s16.5,0.03,23,0.042s6.013-6.989,6.013-6.989
		s0.584-46.498,0.599-54.499c0.015-8-5.477-12.51-5.477-12.51l-11.981-10.021c0,0,0,0,14.011-5.975S487.069,334.676,487.069,334.676
		z M335.467,390.9c0,0-18.5-0.034-24,0.006c-5.5,0.039-7.998-1.064-7.478-12.564c0.411-9.084,10.735-5.755,22.241-2.395
		c3.057,0.894,6.198,1.788,9.259,2.453c5.598,1.215,8.001-0.485,7.987,6.514C343.465,391.914,335.467,390.9,335.467,390.9z M398,373
		v-23.486l-11-0.021V373h-15l5.4-23.524l-52.108-0.095l8.672-25.734c0,0,2.638-7.245,10.138-7.231c7.5,0.015,91,0.165,91,0.165
		s8.001-0.734,11.982,9.772c3.981,10.508,8.458,23.266,8.458,23.266l-47.93-0.087L413,373H398z M477.425,379.438
		c0.489,5.501,0.041,12.22-5.959,12.209c-6.001-0.011-30.5-0.056-30.5-0.056s-8.49-5.567,0.272-12.275l27.137-6.563
		C468.375,372.753,476.935,373.938,477.425,379.438z"/>
</g>
<g id="Layer_3">
	<path fill="#FFFFFF" d="M234.333,167.666L227,152.999c-22,0.667-66,4.667-100.667,40.667s-52,27.333-52,27.333l-14.667-66
		c0,0-26.667-33.333-33.333-41.333s-8.617-10.667,3.333-14S62.333,82.999,83,58.332s84.667-30,84.667-30
		C175,8.999,189,24.999,189,24.999l54.667,118.667L234.333,167.666z M189.667,70.999c-13.333,0-35.333,5.333-35.333,5.333
		L171,113.666c10.667-4.667,35.333-5.333,35.333-5.333L189.667,70.999z M140.333,45.666c0,0-30,8-37.333,16.667l14,30
		c0,0,22.959-13.022,37.333-16L140.333,45.666z M117,92.332c-16,4-33.333,28.016-33.333,28.016L99,157.666l33.338-27.333L117,92.332
		z M99,157.666l-19.333,17.333l7.333,32c10-4.667,28-19.333,28-19.333L99,157.666z M68.333,92.332c-12.667,12-26,17.333-26,17.333
		l22,27.333l19.333-16.651L68.333,92.332z M187,144.332l-16-30.667c-18.656,4.09-38.662,16.667-38.662,16.667l15.996,30.667
		C159,148.999,187,144.332,187,144.332z"/>
	<path fill="#FFFFFF" d="M258.009,143.666l54.667-118.667c0,0,14-16,21.333,3.333c0,0,64,5.333,84.667,30
		c20.666,24.667,41.382,38,53.333,41.333c11.95,3.333,10,6,3.333,14c-6.666,8-33.333,41.333-33.333,41.333l-14.667,66
		c0,0-17.333,8.667-52-27.333c-34.666-36-78.666-40-100.666-40.667l-7.334,14.667L258.009,143.666z M295.342,108.332
		c0,0,24.668,0.667,35.334,5.334l16.666-37.334c0,0-22-5.333-35.333-5.333L295.342,108.332z M347.342,76.332
		c14.375,2.978,37.334,16,37.334,16l14-30c-7.333-8.667-37.334-16.667-37.334-16.667L347.342,76.332z M369.338,130.332
		l33.338,27.334l15.333-37.318c0,0-17.333-24.016-33.333-28.016L369.338,130.332z M386.676,187.666c0,0,18,14.666,28,19.333
		l7.333-32l-19.333-17.333L386.676,187.666z M418.009,120.348l19.333,16.651l22-27.333c0,0-13.333-5.334-26-17.334L418.009,120.348z
		 M353.342,160.999l15.996-30.667c0,0-20.006-12.576-38.662-16.666l-16,30.666C314.676,144.332,342.676,148.999,353.342,160.999z"/>
	<path fill="#FFFFFF" d="M200.333,266.332c-0.667,19.333,14.667,8.667,14.667,8.667l35-71.333l35.667,70.667
		c16.667,11.333,14-8.666,14-8.666l-49.667-104"/>
</g>
</svg>
