<?xml version="1.0" encoding="utf-8"?>
<!-- Generator: Adobe Illustrator 16.0.0, SVG Export Plug-In . SVG Version: 6.00 Build 0)  -->
<!DOCTYPE svg PUBLIC "-//W3C//DTD SVG 1.1//EN" "http://www.w3.org/Graphics/SVG/1.1/DTD/svg11.dtd">
<svg version="1.1" id="Layer_1" xmlns="http://www.w3.org/2000/svg" xmlns:xlink="http://www.w3.org/1999/xlink" x="0px" y="0px"
	 width="500px" height="500px" viewBox="0 0 500 500" enable-background="new 0 0 500 500" xml:space="preserve">
<g id="Layer_2"><g>
		<path fill="#FFFFFF" d="M264,285c0,0-7.797,6.57,0,9.5h100c0,0,8.022-5.545,0-9.5S264,285,264,285z"/>
		<path fill="#FFFFFF" d="M337,301.5h-73c-7.797,4.07,0,11,0,11h73C349.661,307.5,337,301.5,337,301.5z"/>
		<path fill="#FFFFFF" d="M382.531,134c-35.028,0-85.531,0-85.531,0s3.045-19.936-2.604-26.151c0,0,27.685-51.463-5.649-63.893
			C255.413,31.526,232.813,23,232.813,23H180l-50.576,18.747c0,0-40.113,15.129-7.345,68.237c0,0-7.828,30.958,5.565,52.736
			c0,0-49.645,10.98-49.645,51.659C77.999,255.059,78,326,78,326s9.779,48.266,49.968,48.266c0,0-2.624,14.125,10.936,28.813
			c13.56,14.688,64.469,65.537,64.469,65.537s48.62,26.622,69.523-24.227c0,0,17.545-1.391,55.397-47.391H379
			c0,0,42,0.995,42-39.118S421,173,421,173S417.56,134,382.531,134z M143.571,66.583C157.696,60.933,181.966,51,181.966,51H233
			l39.361,16.736c0,0,10.17,2.135,2.824,16.824c-7.345,14.689-10.17,16.057-16.949,16.189c-6.778,0.132-97.646-0.482-97.646-0.482
			s-11.912,3.508-16.996-8.356C138.51,80.047,129.447,72.233,143.571,66.583z M212.475,185.5C140.158,186.065,143.808,111,153,108
			h111C264,108,284.791,184.935,212.475,185.5z M246.373,190L226,210v31.497l-15.686,7.72L130.222,190H246.373z M136.769,348
			C106.26,348,106,316,106,316v-98l73,55v75C179,348,167.277,348,136.769,348z M238.463,444.887c-9.604,9.604-18.644,0-18.644,0
			s-48.588-47.457-57.063-55.932s-7.344-16.949,2.825-26.555c10.169-9.604,19.774,0,19.774,0s49.717,47.458,58.757,56.055
			C253.152,427.052,248.068,435.282,238.463,444.887z M266.771,416.073c-9.545,6.215-16.771-1.694-16.771-1.694L185.356,347.5
			c0,0,1.695-44.421,2.941-64.75s14.008-21.479,14.008-21.479L250,242.062c0,0,19.193-9.231,27.445,6.905
			c8.253,16.137-10.674,23.604-10.674,23.604l-40.738,16.949c0,0-0.565,36.725,1.13,60.453
			c1.695,23.728,20.621,25.988,20.621,25.988l62.43-1.131C310.215,374.83,276.316,409.858,266.771,416.073z M362,268h-78.904
			C295.523,219,246,235,246,235v-16c0,0,25.547,0.233,35.15,0.233c9.604,0,10.859-9.125,10.859-9.125L293,173c0,0,75.972,0,82.751,0
			s5.249,6,5.249,6s0,159.673,0,168.5s-6,9.5-6,9.5s-107.725,0-119.021,0c-11.298,0-9.604-9.094-9.604-9.094l0.127-56.316L274,278
			h88C368.119,272,362,268,362,268z M394,353c0,0,0.146,15.615-17.368,16.182c-17.514,0.565-126.757,0-126.757,0
			s-13.771-1.695-15.165-17.515s-0.048-55.367-0.048-55.367l5.338-3.954V352c0,0,2.067,10,11,10c8.934,0,125,0,125,0
			s9.921-1.044,9.921-9.52c0-8.475,0.565-176.396,0.565-176.396s-1.695-9.102-7.91-9.102s-89.83,0.534-89.83,0.534l-48.023,46.877
			l0.565,21.461l-7.094,5.081l0.874-28.106L285.921,161H379c0,0,15,0.271,15,19.48S394,353,394,353z"/>
		<path fill="#FFFFFF" d="M346.938,325.027c-9.938-12.527-12.43-7.995-16.948,0c-4.52,7.994-0.564,9.125-4.521,7.994
			c0,0-2.824-8.474-6.778-6.778c-3.955,1.694-2.824,2.823,0,11.299c2.823,8.476,7.344,15.255,12.429,5.649
			c5.085-9.604,6.633-22.28,11.509-14.248c4.876,8.033,9.396,13.068,17.87,8.009s14.688-15.111,3.39-10.933
			C352.59,330.197,356.875,337.555,346.938,325.027z"/></g>
	<path fill="#FFFFFF" d="M224.904,71.441C219.254,61.667,227,60.827,225,59.333c-6.428-4.801-5.746-4.281-5.746-4.281
		s-2.61,7.914-12.322,0.004c0,0-7.452,9.04-12.537,0l-6.78,5.084c0,0,4.52,7.91,0,12.995c-0.565,6.214,5.864,15.254,19.316,23.164
		C206.932,96.299,232.325,84.28,224.904,71.441z M214,76v9l-7.259-3.968l-7.24,3.941l0.482-9.37l-5.619-4.728l8.49-1.13l3.89-6.529
		L213,71h6.254L214,76z"/></g>
</svg>
